<mxfile host="app.diagrams.net" modified="2021-02-19T22:45:51.933Z" agent="5.0 (Macintosh; Intel Mac OS X 11_1_0) AppleWebKit/537.36 (KHTML, like Gecko) Chrome/88.0.4324.182 Safari/537.36" etag="0amr3GqVRkYkToSUYsW7" version="14.4.2" type="github">
  <diagram id="C5RBs43oDa-KdzZeNtuy" name="Page-1">
    <mxGraphModel dx="981" dy="664" grid="1" gridSize="10" guides="1" tooltips="1" connect="1" arrows="1" fold="1" page="1" pageScale="1" pageWidth="827" pageHeight="1169" math="0" shadow="0">
      <root>
        <mxCell id="WIyWlLk6GJQsqaUBKTNV-0" />
        <mxCell id="WIyWlLk6GJQsqaUBKTNV-1" parent="WIyWlLk6GJQsqaUBKTNV-0" />
        <mxCell id="RTjfilX-AqYNEhMyl2OA-0" value="" style="rounded=1;whiteSpace=wrap;html=1;shadow=1;sketch=0;glass=0;fillColor=#f5f5f5;strokeColor=#666666;fontColor=#333333;arcSize=3;" vertex="1" parent="WIyWlLk6GJQsqaUBKTNV-1">
          <mxGeometry x="70" y="80" width="840" height="560" as="geometry" />
        </mxCell>
        <mxCell id="RTjfilX-AqYNEhMyl2OA-1" value="&lt;font style=&quot;font-size: 22px&quot;&gt;&lt;b&gt;Covid 19 Tracker&lt;/b&gt;&lt;/font&gt;" style="text;html=1;strokeColor=none;fillColor=none;align=left;verticalAlign=middle;whiteSpace=wrap;rounded=0;shadow=1;glass=0;sketch=0;" vertex="1" parent="WIyWlLk6GJQsqaUBKTNV-1">
          <mxGeometry x="132" y="110" width="211" height="40" as="geometry" />
        </mxCell>
        <mxCell id="RTjfilX-AqYNEhMyl2OA-2" value="" style="rounded=1;whiteSpace=wrap;html=1;shadow=1;glass=0;sketch=0;" vertex="1" parent="WIyWlLk6GJQsqaUBKTNV-1">
          <mxGeometry x="410" y="110" width="160" height="30" as="geometry" />
        </mxCell>
        <mxCell id="RTjfilX-AqYNEhMyl2OA-3" value="World Wide" style="text;html=1;strokeColor=none;fillColor=none;align=center;verticalAlign=middle;whiteSpace=wrap;rounded=0;shadow=1;glass=0;sketch=0;" vertex="1" parent="WIyWlLk6GJQsqaUBKTNV-1">
          <mxGeometry x="440" y="115" width="86" height="20" as="geometry" />
        </mxCell>
        <mxCell id="RTjfilX-AqYNEhMyl2OA-4" value="" style="rounded=1;whiteSpace=wrap;html=1;shadow=1;glass=0;sketch=0;" vertex="1" parent="WIyWlLk6GJQsqaUBKTNV-1">
          <mxGeometry x="130" y="170" width="140" height="70" as="geometry" />
        </mxCell>
        <mxCell id="RTjfilX-AqYNEhMyl2OA-5" value="Coronavirus cases" style="text;html=1;strokeColor=none;fillColor=none;align=left;verticalAlign=middle;whiteSpace=wrap;rounded=0;shadow=1;glass=0;sketch=0;" vertex="1" parent="WIyWlLk6GJQsqaUBKTNV-1">
          <mxGeometry x="140" y="172" width="120" height="20" as="geometry" />
        </mxCell>
        <mxCell id="RTjfilX-AqYNEhMyl2OA-6" value="+2000" style="text;html=1;strokeColor=none;fillColor=none;align=left;verticalAlign=middle;whiteSpace=wrap;rounded=0;shadow=1;glass=0;sketch=0;" vertex="1" parent="WIyWlLk6GJQsqaUBKTNV-1">
          <mxGeometry x="140" y="194" width="120" height="20" as="geometry" />
        </mxCell>
        <mxCell id="RTjfilX-AqYNEhMyl2OA-7" value="1.2M Total" style="text;html=1;strokeColor=none;fillColor=none;align=left;verticalAlign=middle;whiteSpace=wrap;rounded=0;shadow=1;glass=0;sketch=0;" vertex="1" parent="WIyWlLk6GJQsqaUBKTNV-1">
          <mxGeometry x="140" y="214" width="120" height="20" as="geometry" />
        </mxCell>
        <mxCell id="RTjfilX-AqYNEhMyl2OA-8" value="Coronavirus cases" style="text;html=1;strokeColor=none;fillColor=none;align=left;verticalAlign=middle;whiteSpace=wrap;rounded=0;shadow=1;glass=0;sketch=0;" vertex="1" parent="WIyWlLk6GJQsqaUBKTNV-1">
          <mxGeometry x="306" y="171" width="120" height="20" as="geometry" />
        </mxCell>
        <mxCell id="RTjfilX-AqYNEhMyl2OA-9" value="+2000" style="text;html=1;strokeColor=none;fillColor=none;align=left;verticalAlign=middle;whiteSpace=wrap;rounded=0;shadow=1;glass=0;sketch=0;" vertex="1" parent="WIyWlLk6GJQsqaUBKTNV-1">
          <mxGeometry x="306" y="193" width="120" height="20" as="geometry" />
        </mxCell>
        <mxCell id="RTjfilX-AqYNEhMyl2OA-10" value="1.2M Total" style="text;html=1;strokeColor=none;fillColor=none;align=left;verticalAlign=middle;whiteSpace=wrap;rounded=0;shadow=1;glass=0;sketch=0;" vertex="1" parent="WIyWlLk6GJQsqaUBKTNV-1">
          <mxGeometry x="306" y="213" width="120" height="20" as="geometry" />
        </mxCell>
        <mxCell id="RTjfilX-AqYNEhMyl2OA-11" value="" style="rounded=1;whiteSpace=wrap;html=1;shadow=1;glass=0;sketch=0;" vertex="1" parent="WIyWlLk6GJQsqaUBKTNV-1">
          <mxGeometry x="280" y="169" width="140" height="70" as="geometry" />
        </mxCell>
        <mxCell id="RTjfilX-AqYNEhMyl2OA-12" value="Coronavirus cases" style="text;html=1;strokeColor=none;fillColor=none;align=left;verticalAlign=middle;whiteSpace=wrap;rounded=0;shadow=1;glass=0;sketch=0;" vertex="1" parent="WIyWlLk6GJQsqaUBKTNV-1">
          <mxGeometry x="470" y="170" width="120" height="20" as="geometry" />
        </mxCell>
        <mxCell id="RTjfilX-AqYNEhMyl2OA-13" value="+2000" style="text;html=1;strokeColor=none;fillColor=none;align=left;verticalAlign=middle;whiteSpace=wrap;rounded=0;shadow=1;glass=0;sketch=0;" vertex="1" parent="WIyWlLk6GJQsqaUBKTNV-1">
          <mxGeometry x="470" y="192" width="120" height="20" as="geometry" />
        </mxCell>
        <mxCell id="RTjfilX-AqYNEhMyl2OA-14" value="1.2M Total" style="text;html=1;strokeColor=none;fillColor=none;align=left;verticalAlign=middle;whiteSpace=wrap;rounded=0;shadow=1;glass=0;sketch=0;" vertex="1" parent="WIyWlLk6GJQsqaUBKTNV-1">
          <mxGeometry x="470" y="212" width="120" height="20" as="geometry" />
        </mxCell>
        <mxCell id="RTjfilX-AqYNEhMyl2OA-15" value="" style="rounded=1;whiteSpace=wrap;html=1;shadow=1;glass=0;sketch=0;" vertex="1" parent="WIyWlLk6GJQsqaUBKTNV-1">
          <mxGeometry x="429" y="168" width="140" height="70" as="geometry" />
        </mxCell>
        <mxCell id="RTjfilX-AqYNEhMyl2OA-16" value="Recovered" style="text;html=1;strokeColor=none;fillColor=none;align=left;verticalAlign=middle;whiteSpace=wrap;rounded=0;shadow=1;glass=0;sketch=0;" vertex="1" parent="WIyWlLk6GJQsqaUBKTNV-1">
          <mxGeometry x="290" y="170" width="120" height="20" as="geometry" />
        </mxCell>
        <mxCell id="RTjfilX-AqYNEhMyl2OA-17" value="+2000" style="text;html=1;strokeColor=none;fillColor=none;align=left;verticalAlign=middle;whiteSpace=wrap;rounded=0;shadow=1;glass=0;sketch=0;" vertex="1" parent="WIyWlLk6GJQsqaUBKTNV-1">
          <mxGeometry x="290" y="192" width="120" height="20" as="geometry" />
        </mxCell>
        <mxCell id="RTjfilX-AqYNEhMyl2OA-18" value="1.2M Total" style="text;html=1;strokeColor=none;fillColor=none;align=left;verticalAlign=middle;whiteSpace=wrap;rounded=0;shadow=1;glass=0;sketch=0;" vertex="1" parent="WIyWlLk6GJQsqaUBKTNV-1">
          <mxGeometry x="290" y="212" width="120" height="20" as="geometry" />
        </mxCell>
        <mxCell id="RTjfilX-AqYNEhMyl2OA-19" value="Deaths" style="text;html=1;strokeColor=none;fillColor=none;align=left;verticalAlign=middle;whiteSpace=wrap;rounded=0;shadow=1;glass=0;sketch=0;" vertex="1" parent="WIyWlLk6GJQsqaUBKTNV-1">
          <mxGeometry x="439" y="170" width="120" height="20" as="geometry" />
        </mxCell>
        <mxCell id="RTjfilX-AqYNEhMyl2OA-20" value="+2000" style="text;html=1;strokeColor=none;fillColor=none;align=left;verticalAlign=middle;whiteSpace=wrap;rounded=0;shadow=1;glass=0;sketch=0;" vertex="1" parent="WIyWlLk6GJQsqaUBKTNV-1">
          <mxGeometry x="439" y="192" width="120" height="20" as="geometry" />
        </mxCell>
        <mxCell id="RTjfilX-AqYNEhMyl2OA-21" value="1.2M Total" style="text;html=1;strokeColor=none;fillColor=none;align=left;verticalAlign=middle;whiteSpace=wrap;rounded=0;shadow=1;glass=0;sketch=0;" vertex="1" parent="WIyWlLk6GJQsqaUBKTNV-1">
          <mxGeometry x="439" y="212" width="120" height="20" as="geometry" />
        </mxCell>
        <mxCell id="RTjfilX-AqYNEhMyl2OA-22" value="" style="rounded=1;whiteSpace=wrap;html=1;shadow=1;glass=0;sketch=0;arcSize=4;" vertex="1" parent="WIyWlLk6GJQsqaUBKTNV-1">
          <mxGeometry x="130" y="280" width="440" height="290" as="geometry" />
        </mxCell>
        <mxCell id="RTjfilX-AqYNEhMyl2OA-23" value="Map" style="html=1;strokeColor=none;fillColor=#0079D6;labelPosition=center;verticalLabelPosition=middle;verticalAlign=top;align=center;fontSize=12;outlineConnect=0;spacingTop=-6;fontColor=#FFFFFF;shape=mxgraph.sitemap.map;shadow=1;glass=0;sketch=0;" vertex="1" parent="WIyWlLk6GJQsqaUBKTNV-1">
          <mxGeometry x="186" y="320" width="324" height="200" as="geometry" />
        </mxCell>
        <mxCell id="RTjfilX-AqYNEhMyl2OA-24" value="" style="rounded=1;whiteSpace=wrap;html=1;shadow=1;glass=0;sketch=0;arcSize=3;" vertex="1" parent="WIyWlLk6GJQsqaUBKTNV-1">
          <mxGeometry x="620" y="112" width="250" height="458" as="geometry" />
        </mxCell>
        <mxCell id="RTjfilX-AqYNEhMyl2OA-25" value="Cases By Country" style="text;html=1;strokeColor=none;fillColor=none;align=left;verticalAlign=middle;whiteSpace=wrap;rounded=0;shadow=1;glass=0;sketch=0;" vertex="1" parent="WIyWlLk6GJQsqaUBKTNV-1">
          <mxGeometry x="630" y="120" width="190" height="20" as="geometry" />
        </mxCell>
        <mxCell id="RTjfilX-AqYNEhMyl2OA-26" value="WorldWide New Cases" style="text;html=1;strokeColor=none;fillColor=none;align=left;verticalAlign=middle;whiteSpace=wrap;rounded=0;shadow=1;glass=0;sketch=0;" vertex="1" parent="WIyWlLk6GJQsqaUBKTNV-1">
          <mxGeometry x="630" y="400" width="190" height="20" as="geometry" />
        </mxCell>
        <mxCell id="RTjfilX-AqYNEhMyl2OA-30" value="" style="shape=image;html=1;verticalAlign=top;verticalLabelPosition=bottom;labelBackgroundColor=#ffffff;imageAspect=0;aspect=fixed;image=https://cdn2.iconfinder.com/data/icons/3d-infographics/512/4-128.png;shadow=1;glass=0;sketch=0;" vertex="1" parent="WIyWlLk6GJQsqaUBKTNV-1">
          <mxGeometry x="656" y="420" width="140" height="140" as="geometry" />
        </mxCell>
        <mxCell id="RTjfilX-AqYNEhMyl2OA-31" value="" style="shape=table;html=1;whiteSpace=wrap;startSize=0;container=1;collapsible=0;childLayout=tableLayout;columnLines=0;rowLines=0;shadow=1;glass=0;sketch=0;" vertex="1" parent="WIyWlLk6GJQsqaUBKTNV-1">
          <mxGeometry x="630" y="150" width="230" height="230" as="geometry" />
        </mxCell>
        <mxCell id="RTjfilX-AqYNEhMyl2OA-32" value="" style="shape=partialRectangle;html=1;whiteSpace=wrap;collapsible=0;dropTarget=0;pointerEvents=0;fillColor=none;top=0;left=0;bottom=0;right=0;points=[[0,0.5],[1,0.5]];portConstraint=eastwest;" vertex="1" parent="RTjfilX-AqYNEhMyl2OA-31">
          <mxGeometry width="230" height="77" as="geometry" />
        </mxCell>
        <mxCell id="RTjfilX-AqYNEhMyl2OA-33" value="Value 1" style="shape=partialRectangle;html=1;whiteSpace=wrap;connectable=0;fillColor=none;top=0;left=0;bottom=0;right=0;overflow=hidden;" vertex="1" parent="RTjfilX-AqYNEhMyl2OA-32">
          <mxGeometry width="77" height="77" as="geometry" />
        </mxCell>
        <mxCell id="RTjfilX-AqYNEhMyl2OA-34" value="Value 2" style="shape=partialRectangle;html=1;whiteSpace=wrap;connectable=0;fillColor=none;top=0;left=0;bottom=0;right=0;overflow=hidden;" vertex="1" parent="RTjfilX-AqYNEhMyl2OA-32">
          <mxGeometry x="77" width="76" height="77" as="geometry" />
        </mxCell>
        <mxCell id="RTjfilX-AqYNEhMyl2OA-35" value="Value 3" style="shape=partialRectangle;html=1;whiteSpace=wrap;connectable=0;fillColor=none;top=0;left=0;bottom=0;right=0;overflow=hidden;" vertex="1" parent="RTjfilX-AqYNEhMyl2OA-32">
          <mxGeometry x="153" width="77" height="77" as="geometry" />
        </mxCell>
        <mxCell id="RTjfilX-AqYNEhMyl2OA-36" value="" style="shape=partialRectangle;html=1;whiteSpace=wrap;collapsible=0;dropTarget=0;pointerEvents=0;fillColor=none;top=0;left=0;bottom=0;right=0;points=[[0,0.5],[1,0.5]];portConstraint=eastwest;" vertex="1" parent="RTjfilX-AqYNEhMyl2OA-31">
          <mxGeometry y="77" width="230" height="76" as="geometry" />
        </mxCell>
        <mxCell id="RTjfilX-AqYNEhMyl2OA-37" value="Value 4" style="shape=partialRectangle;html=1;whiteSpace=wrap;connectable=0;fillColor=none;top=0;left=0;bottom=0;right=0;overflow=hidden;" vertex="1" parent="RTjfilX-AqYNEhMyl2OA-36">
          <mxGeometry width="77" height="76" as="geometry" />
        </mxCell>
        <mxCell id="RTjfilX-AqYNEhMyl2OA-38" value="Value 5" style="shape=partialRectangle;html=1;whiteSpace=wrap;connectable=0;fillColor=none;top=0;left=0;bottom=0;right=0;overflow=hidden;" vertex="1" parent="RTjfilX-AqYNEhMyl2OA-36">
          <mxGeometry x="77" width="76" height="76" as="geometry" />
        </mxCell>
        <mxCell id="RTjfilX-AqYNEhMyl2OA-39" value="Value 6" style="shape=partialRectangle;html=1;whiteSpace=wrap;connectable=0;fillColor=none;top=0;left=0;bottom=0;right=0;overflow=hidden;" vertex="1" parent="RTjfilX-AqYNEhMyl2OA-36">
          <mxGeometry x="153" width="77" height="76" as="geometry" />
        </mxCell>
        <mxCell id="RTjfilX-AqYNEhMyl2OA-40" value="" style="shape=partialRectangle;html=1;whiteSpace=wrap;collapsible=0;dropTarget=0;pointerEvents=0;fillColor=none;top=0;left=0;bottom=0;right=0;points=[[0,0.5],[1,0.5]];portConstraint=eastwest;" vertex="1" parent="RTjfilX-AqYNEhMyl2OA-31">
          <mxGeometry y="153" width="230" height="77" as="geometry" />
        </mxCell>
        <mxCell id="RTjfilX-AqYNEhMyl2OA-41" value="Value 7" style="shape=partialRectangle;html=1;whiteSpace=wrap;connectable=0;fillColor=none;top=0;left=0;bottom=0;right=0;overflow=hidden;" vertex="1" parent="RTjfilX-AqYNEhMyl2OA-40">
          <mxGeometry width="77" height="77" as="geometry" />
        </mxCell>
        <mxCell id="RTjfilX-AqYNEhMyl2OA-42" value="Value 8" style="shape=partialRectangle;html=1;whiteSpace=wrap;connectable=0;fillColor=none;top=0;left=0;bottom=0;right=0;overflow=hidden;" vertex="1" parent="RTjfilX-AqYNEhMyl2OA-40">
          <mxGeometry x="77" width="76" height="77" as="geometry" />
        </mxCell>
        <mxCell id="RTjfilX-AqYNEhMyl2OA-43" value="Value 9" style="shape=partialRectangle;html=1;whiteSpace=wrap;connectable=0;fillColor=none;top=0;left=0;bottom=0;right=0;overflow=hidden;" vertex="1" parent="RTjfilX-AqYNEhMyl2OA-40">
          <mxGeometry x="153" width="77" height="77" as="geometry" />
        </mxCell>
        <mxCell id="RTjfilX-AqYNEhMyl2OA-44" value="&lt;font style=&quot;font-size: 20px&quot;&gt;1. Create Wireframe&lt;/font&gt;" style="text;html=1;strokeColor=none;fillColor=none;align=left;verticalAlign=middle;whiteSpace=wrap;rounded=0;shadow=1;glass=0;sketch=0;" vertex="1" parent="WIyWlLk6GJQsqaUBKTNV-1">
          <mxGeometry x="970" y="95" width="300" height="20" as="geometry" />
        </mxCell>
        <mxCell id="RTjfilX-AqYNEhMyl2OA-45" value="&lt;font style=&quot;font-size: 16px&quot;&gt;&amp;nbsp;Build the app with Draw.io&amp;nbsp;&lt;/font&gt;" style="text;html=1;strokeColor=none;fillColor=none;align=left;verticalAlign=middle;whiteSpace=wrap;rounded=0;shadow=1;glass=0;sketch=0;" vertex="1" parent="WIyWlLk6GJQsqaUBKTNV-1">
          <mxGeometry x="1010" y="120" width="300" height="20" as="geometry" />
        </mxCell>
        <mxCell id="RTjfilX-AqYNEhMyl2OA-46" value="&lt;font style=&quot;font-size: 20px&quot;&gt;2. Create React App&lt;/font&gt;" style="text;html=1;strokeColor=none;fillColor=none;align=left;verticalAlign=middle;whiteSpace=wrap;rounded=0;shadow=1;glass=0;sketch=0;" vertex="1" parent="WIyWlLk6GJQsqaUBKTNV-1">
          <mxGeometry x="960" y="159.5" width="300" height="20" as="geometry" />
        </mxCell>
        <mxCell id="RTjfilX-AqYNEhMyl2OA-48" value="&lt;font style=&quot;font-size: 20px&quot;&gt;3. Cleanup Project&lt;/font&gt;" style="text;html=1;strokeColor=none;fillColor=none;align=left;verticalAlign=middle;whiteSpace=wrap;rounded=0;shadow=1;glass=0;sketch=0;" vertex="1" parent="WIyWlLk6GJQsqaUBKTNV-1">
          <mxGeometry x="960" y="190" width="300" height="20" as="geometry" />
        </mxCell>
        <mxCell id="RTjfilX-AqYNEhMyl2OA-50" value="&lt;span style=&quot;font-size: 20px&quot;&gt;4. Structure of covid tracker&lt;/span&gt;" style="text;html=1;strokeColor=none;fillColor=none;align=left;verticalAlign=middle;whiteSpace=wrap;rounded=0;shadow=1;glass=0;sketch=0;" vertex="1" parent="WIyWlLk6GJQsqaUBKTNV-1">
          <mxGeometry x="960" y="220" width="300" height="20" as="geometry" />
        </mxCell>
        <mxCell id="RTjfilX-AqYNEhMyl2OA-52" value="&lt;font style=&quot;font-size: 20px&quot;&gt;5. Create Header&lt;/font&gt;" style="text;html=1;strokeColor=none;fillColor=none;align=left;verticalAlign=middle;whiteSpace=wrap;rounded=0;shadow=1;glass=0;sketch=0;" vertex="1" parent="WIyWlLk6GJQsqaUBKTNV-1">
          <mxGeometry x="960" y="250" width="300" height="20" as="geometry" />
        </mxCell>
        <mxCell id="RTjfilX-AqYNEhMyl2OA-54" value="&lt;font style=&quot;font-size: 20px&quot;&gt;6. Create Information Box&lt;/font&gt;" style="text;html=1;strokeColor=none;fillColor=none;align=left;verticalAlign=middle;whiteSpace=wrap;rounded=0;shadow=1;glass=0;sketch=0;" vertex="1" parent="WIyWlLk6GJQsqaUBKTNV-1">
          <mxGeometry x="960" y="280" width="300" height="20" as="geometry" />
        </mxCell>
        <mxCell id="RTjfilX-AqYNEhMyl2OA-56" value="&lt;span style=&quot;font-size: 20px&quot;&gt;7. Create Table&lt;/span&gt;" style="text;html=1;strokeColor=none;fillColor=none;align=left;verticalAlign=middle;whiteSpace=wrap;rounded=0;shadow=1;glass=0;sketch=0;" vertex="1" parent="WIyWlLk6GJQsqaUBKTNV-1">
          <mxGeometry x="960" y="310" width="300" height="20" as="geometry" />
        </mxCell>
        <mxCell id="RTjfilX-AqYNEhMyl2OA-58" value="&lt;font style=&quot;font-size: 20px&quot;&gt;8. Create Chart&lt;/font&gt;" style="text;html=1;strokeColor=none;fillColor=none;align=left;verticalAlign=middle;whiteSpace=wrap;rounded=0;shadow=1;glass=0;sketch=0;" vertex="1" parent="WIyWlLk6GJQsqaUBKTNV-1">
          <mxGeometry x="960" y="340" width="300" height="20" as="geometry" />
        </mxCell>
        <mxCell id="RTjfilX-AqYNEhMyl2OA-59" value="&lt;font style=&quot;font-size: 20px&quot;&gt;9. Create Map&lt;/font&gt;" style="text;html=1;strokeColor=none;fillColor=none;align=left;verticalAlign=middle;whiteSpace=wrap;rounded=0;shadow=1;glass=0;sketch=0;" vertex="1" parent="WIyWlLk6GJQsqaUBKTNV-1">
          <mxGeometry x="960" y="370" width="300" height="20" as="geometry" />
        </mxCell>
        <mxCell id="RTjfilX-AqYNEhMyl2OA-60" value="&lt;font style=&quot;font-size: 20px&quot;&gt;10. Create Styling&lt;/font&gt;" style="text;html=1;strokeColor=none;fillColor=none;align=left;verticalAlign=middle;whiteSpace=wrap;rounded=0;shadow=1;glass=0;sketch=0;" vertex="1" parent="WIyWlLk6GJQsqaUBKTNV-1">
          <mxGeometry x="958" y="400" width="300" height="20" as="geometry" />
        </mxCell>
        <mxCell id="RTjfilX-AqYNEhMyl2OA-61" value="&lt;font style=&quot;font-size: 20px&quot;&gt;11. Deploy Project&lt;/font&gt;" style="text;html=1;strokeColor=none;fillColor=none;align=left;verticalAlign=middle;whiteSpace=wrap;rounded=0;shadow=1;glass=0;sketch=0;" vertex="1" parent="WIyWlLk6GJQsqaUBKTNV-1">
          <mxGeometry x="960" y="430" width="300" height="20" as="geometry" />
        </mxCell>
      </root>
    </mxGraphModel>
  </diagram>
</mxfile>
